# MagicaVoxel @ Ephtracy

# group
g Hammer

# material
mtllib Hammer.mtl
usemtl palette

# normals
vn -1 0 0
vn 1 0 0
vn 0 0 1
vn 0 0 -1
vn 0 -1 0
vn 0 1 0

# texcoords
vt 0.0371094 0.5
vt 0.0644531 0.5
vt 0.990234 0.5

# verts
v -12 13 2
v -12 13 1
v -12 13 -0
v -12 15 2
v -12 15 1
v -12 15 -0
v 3 13 4
v 3 13 2
v 3 13 -0
v 3 13 -3
v 3 15 4
v 3 15 2
v 3 15 -0
v 3 15 -3
v 4 13 4
v 4 13 3
v 4 15 4
v 4 15 3
v 6 13 3
v 6 13 -3
v 6 15 3
v 6 15 -3
v 3 13 4
v 3 15 4
v 4 13 4
v 4 15 4
v 4 13 3
v 4 15 3
v 6 13 3
v 6 15 3
v -12 13 2
v -12 15 2
v -5 13 2
v -5 15 2
v 3 13 2
v 3 15 2
v -12 13 -0
v -12 15 -0
v 3 13 -0
v 3 15 -0
v 3 13 -3
v 3 15 -3
v 6 13 -3
v 6 15 -3
v 3 13 4
v 4 13 4
v 4 13 3
v 6 13 3
v -12 13 2
v -5 13 2
v 3 13 2
v -12 13 1
v -5 13 1
v -12 13 -0
v 3 13 -0
v 3 13 -3
v 6 13 -3
v 3 15 4
v 4 15 4
v 4 15 3
v 6 15 3
v -12 15 2
v -5 15 2
v 3 15 2
v -12 15 1
v -5 15 1
v -12 15 -0
v 3 15 -0
v 3 15 -3
v 6 15 -3

# faces
f 4/2/1 2/2/1 1/2/1
f 5/1/1 3/1/1 2/1/1
f 5/2/1 2/2/1 4/2/1
f 6/1/1 3/1/1 5/1/1
f 11/3/1 8/3/1 7/3/1
f 12/3/1 8/3/1 11/3/1
f 13/3/1 10/3/1 9/3/1
f 14/3/1 10/3/1 13/3/1
f 15/3/2 16/3/2 17/3/2
f 17/3/2 16/3/2 18/3/2
f 19/3/2 20/3/2 21/3/2
f 21/3/2 20/3/2 22/3/2
f 25/3/3 24/3/3 23/3/3
f 26/3/3 24/3/3 25/3/3
f 29/3/3 28/3/3 27/3/3
f 30/3/3 28/3/3 29/3/3
f 33/2/3 32/2/3 31/2/3
f 34/2/3 32/2/3 33/2/3
f 35/1/3 34/1/3 33/1/3
f 36/1/3 34/1/3 35/1/3
f 37/1/4 38/1/4 39/1/4
f 39/1/4 38/1/4 40/1/4
f 41/3/4 42/3/4 43/3/4
f 43/3/4 42/3/4 44/3/4
f 47/3/5 46/3/5 45/3/5
f 51/3/5 47/3/5 45/3/5
f 51/3/5 48/3/5 47/3/5
f 52/2/5 50/2/5 49/2/5
f 53/1/5 51/1/5 50/1/5
f 53/2/5 50/2/5 52/2/5
f 54/1/5 53/1/5 52/1/5
f 55/3/5 48/3/5 51/3/5
f 55/1/5 53/1/5 54/1/5
f 55/1/5 51/1/5 53/1/5
f 56/3/5 48/3/5 55/3/5
f 57/3/5 48/3/5 56/3/5
f 58/3/6 59/3/6 60/3/6
f 58/3/6 60/3/6 64/3/6
f 60/3/6 61/3/6 64/3/6
f 62/2/6 63/2/6 65/2/6
f 63/1/6 64/1/6 66/1/6
f 65/2/6 63/2/6 66/2/6
f 65/1/6 66/1/6 67/1/6
f 64/3/6 61/3/6 68/3/6
f 67/1/6 66/1/6 68/1/6
f 66/1/6 64/1/6 68/1/6
f 68/3/6 61/3/6 69/3/6
f 69/3/6 61/3/6 70/3/6
