# MagicaVoxel @ Ephtracy

# group
g Sword

# material
mtllib Sword.mtl
usemtl palette

# normals
vn -1 0 0
vn 1 0 0
vn 0 0 1
vn 0 0 -1
vn 0 -1 0
vn 0 1 0

# texcoords
vt 0.0644531 0.5
vt 0.970703 0.5

# verts
v -13 0 -1
v -13 0 -2
v -13 1 -1
v -13 1 -2
v -12 0 -0
v -12 0 -1
v -12 0 -2
v -12 0 -3
v -12 1 -0
v -12 1 -1
v -12 1 -2
v -12 1 -3
v -11 0 1
v -11 0 -0
v -11 0 -3
v -11 0 -4
v -11 1 1
v -11 1 -0
v -11 1 -3
v -11 1 -4
v 9 0 3
v 9 0 1
v 9 0 -4
v 9 0 -6
v 9 1 3
v 9 1 1
v 9 1 -4
v 9 1 -6
v 11 0 3
v 11 0 -0
v 11 0 -3
v 11 0 -6
v 11 1 3
v 11 1 -0
v 11 1 -3
v 11 1 -6
v 15 0 -0
v 15 0 -3
v 15 1 -0
v 15 1 -3
v 9 0 3
v 9 1 3
v 11 0 3
v 11 1 3
v -11 0 1
v -11 1 1
v 9 0 1
v 9 1 1
v -12 0 -0
v -12 1 -0
v -11 0 -0
v -11 1 -0
v 11 0 -0
v 11 1 -0
v 15 0 -0
v 15 1 -0
v -13 0 -1
v -13 1 -1
v -12 0 -1
v -12 1 -1
v -13 0 -2
v -13 1 -2
v -12 0 -2
v -12 1 -2
v -12 0 -3
v -12 1 -3
v -11 0 -3
v -11 1 -3
v 11 0 -3
v 11 1 -3
v 15 0 -3
v 15 1 -3
v -11 0 -4
v -11 1 -4
v 9 0 -4
v 9 1 -4
v 9 0 -6
v 9 1 -6
v 11 0 -6
v 11 1 -6
v 9 0 3
v 11 0 3
v -11 0 1
v 9 0 1
v -12 0 -0
v -11 0 -0
v 11 0 -0
v 15 0 -0
v -13 0 -1
v -12 0 -1
v -13 0 -2
v -12 0 -2
v -12 0 -3
v -11 0 -3
v 11 0 -3
v 15 0 -3
v -11 0 -4
v 9 0 -4
v 9 0 -6
v 11 0 -6
v 9 1 3
v 11 1 3
v -11 1 1
v 9 1 1
v -12 1 -0
v -11 1 -0
v 11 1 -0
v 15 1 -0
v -13 1 -1
v -12 1 -1
v -13 1 -2
v -12 1 -2
v -12 1 -3
v -11 1 -3
v 11 1 -3
v 15 1 -3
v -11 1 -4
v 9 1 -4
v 9 1 -6
v 11 1 -6

# faces
f 3/1/1 2/1/1 1/1/1
f 4/1/1 2/1/1 3/1/1
f 9/1/1 6/1/1 5/1/1
f 10/1/1 6/1/1 9/1/1
f 11/1/1 8/1/1 7/1/1
f 12/1/1 8/1/1 11/1/1
f 17/1/1 14/1/1 13/1/1
f 18/1/1 14/1/1 17/1/1
f 19/1/1 16/1/1 15/1/1
f 20/1/1 16/1/1 19/1/1
f 25/2/1 22/2/1 21/2/1
f 26/2/1 22/2/1 25/2/1
f 27/2/1 24/2/1 23/2/1
f 28/2/1 24/2/1 27/2/1
f 29/2/2 30/2/2 33/2/2
f 33/2/2 30/2/2 34/2/2
f 31/2/2 32/2/2 35/2/2
f 35/2/2 32/2/2 36/2/2
f 37/2/2 38/2/2 39/2/2
f 39/2/2 38/2/2 40/2/2
f 43/2/3 42/2/3 41/2/3
f 44/2/3 42/2/3 43/2/3
f 47/1/3 46/1/3 45/1/3
f 48/1/3 46/1/3 47/1/3
f 51/1/3 50/1/3 49/1/3
f 52/1/3 50/1/3 51/1/3
f 55/2/3 54/2/3 53/2/3
f 56/2/3 54/2/3 55/2/3
f 59/1/3 58/1/3 57/1/3
f 60/1/3 58/1/3 59/1/3
f 61/1/4 62/1/4 63/1/4
f 63/1/4 62/1/4 64/1/4
f 65/1/4 66/1/4 67/1/4
f 67/1/4 66/1/4 68/1/4
f 69/2/4 70/2/4 71/2/4
f 71/2/4 70/2/4 72/2/4
f 73/1/4 74/1/4 75/1/4
f 75/1/4 74/1/4 76/1/4
f 77/2/4 78/2/4 79/2/4
f 79/2/4 78/2/4 80/2/4
f 84/2/5 82/2/5 81/2/5
f 86/1/5 84/1/5 83/1/5
f 87/2/5 82/2/5 84/2/5
f 90/1/5 86/1/5 85/1/5
f 91/1/5 90/1/5 89/1/5
f 92/1/5 86/1/5 90/1/5
f 92/1/5 90/1/5 91/1/5
f 93/1/5 86/1/5 92/1/5
f 94/1/5 84/1/5 86/1/5
f 94/1/5 86/1/5 93/1/5
f 95/2/5 88/2/5 87/2/5
f 95/2/5 87/2/5 84/2/5
f 96/2/5 88/2/5 95/2/5
f 97/1/5 84/1/5 94/1/5
f 98/2/5 95/2/5 84/2/5
f 98/1/5 84/1/5 97/1/5
f 99/2/5 95/2/5 98/2/5
f 100/2/5 95/2/5 99/2/5
f 101/2/6 102/2/6 104/2/6
f 103/1/6 104/1/6 106/1/6
f 104/2/6 102/2/6 107/2/6
f 105/1/6 106/1/6 110/1/6
f 109/1/6 110/1/6 111/1/6
f 110/1/6 106/1/6 112/1/6
f 111/1/6 110/1/6 112/1/6
f 112/1/6 106/1/6 113/1/6
f 106/1/6 104/1/6 114/1/6
f 113/1/6 106/1/6 114/1/6
f 107/2/6 108/2/6 115/2/6
f 104/2/6 107/2/6 115/2/6
f 115/2/6 108/2/6 116/2/6
f 114/1/6 104/1/6 117/1/6
f 104/2/6 115/2/6 118/2/6
f 117/1/6 104/1/6 118/1/6
f 118/2/6 115/2/6 119/2/6
f 119/2/6 115/2/6 120/2/6
